<mxfile host="app.diagrams.net" modified="2023-03-08T12:44:32.030Z" agent="5.0 (Windows NT 10.0; Win64; x64) AppleWebKit/537.36 (KHTML, like Gecko) Chrome/110.0.0.0 Safari/537.36" etag="QfkzQ3gjneDeXdjZxSMH" version="21.0.2" type="github">
  <diagram id="R2lEEEUBdFMjLlhIrx00" name="Page-1">
    <mxGraphModel dx="2537" dy="2011" grid="1" gridSize="10" guides="1" tooltips="1" connect="1" arrows="1" fold="1" page="1" pageScale="1" pageWidth="850" pageHeight="1100" math="0" shadow="0" extFonts="Permanent Marker^https://fonts.googleapis.com/css?family=Permanent+Marker">
      <root>
        <mxCell id="0" />
        <mxCell id="1" parent="0" />
        <mxCell id="MkkSMNq0kK9rciRN_NWv-43" value="" style="rounded=0;html=1;whiteSpace=wrap;fillColor=#eeeeee;strokeColor=#36393d;" vertex="1" parent="1">
          <mxGeometry x="305" y="332.5" width="190" height="377.5" as="geometry" />
        </mxCell>
        <mxCell id="C-vyLk0tnHw3VtMMgP7b-2" value="Business Layer" style="shape=table;startSize=30;container=1;collapsible=1;childLayout=tableLayout;fixedRows=1;rowLines=0;fontStyle=1;align=center;resizeLast=1;fillColor=#dae8fc;strokeColor=#6c8ebf;fontSize=16;" parent="1" vertex="1">
          <mxGeometry x="530" y="400" width="250" height="150" as="geometry" />
        </mxCell>
        <mxCell id="C-vyLk0tnHw3VtMMgP7b-3" value="" style="shape=partialRectangle;collapsible=0;dropTarget=0;pointerEvents=0;fillColor=none;points=[[0,0.5],[1,0.5]];portConstraint=eastwest;top=0;left=0;right=0;bottom=1;" parent="C-vyLk0tnHw3VtMMgP7b-2" vertex="1">
          <mxGeometry y="30" width="250" height="40" as="geometry" />
        </mxCell>
        <mxCell id="C-vyLk0tnHw3VtMMgP7b-4" value="" style="shape=partialRectangle;overflow=hidden;connectable=0;fillColor=none;top=0;left=0;bottom=0;right=0;fontStyle=1;" parent="C-vyLk0tnHw3VtMMgP7b-3" vertex="1">
          <mxGeometry width="20" height="40" as="geometry">
            <mxRectangle width="20" height="40" as="alternateBounds" />
          </mxGeometry>
        </mxCell>
        <mxCell id="C-vyLk0tnHw3VtMMgP7b-5" value="FaceMorphingService" style="shape=partialRectangle;overflow=hidden;connectable=0;fillColor=none;top=0;left=0;bottom=0;right=0;align=left;spacingLeft=6;fontStyle=0;fontSize=15;" parent="C-vyLk0tnHw3VtMMgP7b-3" vertex="1">
          <mxGeometry x="20" width="230" height="40" as="geometry">
            <mxRectangle width="230" height="40" as="alternateBounds" />
          </mxGeometry>
        </mxCell>
        <mxCell id="C-vyLk0tnHw3VtMMgP7b-6" value="" style="shape=partialRectangle;collapsible=0;dropTarget=0;pointerEvents=0;fillColor=none;points=[[0,0.5],[1,0.5]];portConstraint=eastwest;top=0;left=0;right=0;bottom=0;" parent="C-vyLk0tnHw3VtMMgP7b-2" vertex="1">
          <mxGeometry y="70" width="250" height="30" as="geometry" />
        </mxCell>
        <mxCell id="C-vyLk0tnHw3VtMMgP7b-7" value="" style="shape=partialRectangle;overflow=hidden;connectable=0;fillColor=none;top=0;left=0;bottom=0;right=0;" parent="C-vyLk0tnHw3VtMMgP7b-6" vertex="1">
          <mxGeometry width="20" height="30" as="geometry">
            <mxRectangle width="20" height="30" as="alternateBounds" />
          </mxGeometry>
        </mxCell>
        <mxCell id="C-vyLk0tnHw3VtMMgP7b-8" value="AgeProgressionService" style="shape=partialRectangle;overflow=hidden;connectable=0;fillColor=none;top=0;left=0;bottom=0;right=0;align=left;spacingLeft=6;fontStyle=0;fontSize=15;" parent="C-vyLk0tnHw3VtMMgP7b-6" vertex="1">
          <mxGeometry x="20" width="230" height="30" as="geometry">
            <mxRectangle width="230" height="30" as="alternateBounds" />
          </mxGeometry>
        </mxCell>
        <mxCell id="C-vyLk0tnHw3VtMMgP7b-9" value="" style="shape=partialRectangle;collapsible=0;dropTarget=0;pointerEvents=0;fillColor=none;points=[[0,0.5],[1,0.5]];portConstraint=eastwest;top=0;left=0;right=0;bottom=0;" parent="C-vyLk0tnHw3VtMMgP7b-2" vertex="1">
          <mxGeometry y="100" width="250" height="30" as="geometry" />
        </mxCell>
        <mxCell id="C-vyLk0tnHw3VtMMgP7b-10" value="" style="shape=partialRectangle;overflow=hidden;connectable=0;fillColor=none;top=0;left=0;bottom=0;right=0;" parent="C-vyLk0tnHw3VtMMgP7b-9" vertex="1">
          <mxGeometry width="20" height="30" as="geometry">
            <mxRectangle width="20" height="30" as="alternateBounds" />
          </mxGeometry>
        </mxCell>
        <mxCell id="C-vyLk0tnHw3VtMMgP7b-11" value="FaceImageModel" style="shape=partialRectangle;overflow=hidden;connectable=0;fillColor=none;top=0;left=0;bottom=0;right=0;align=left;spacingLeft=6;fontStyle=0;fontSize=15;" parent="C-vyLk0tnHw3VtMMgP7b-9" vertex="1">
          <mxGeometry x="20" width="230" height="30" as="geometry">
            <mxRectangle width="230" height="30" as="alternateBounds" />
          </mxGeometry>
        </mxCell>
        <mxCell id="C-vyLk0tnHw3VtMMgP7b-23" value="Client" style="shape=table;startSize=30;container=1;collapsible=1;childLayout=tableLayout;fixedRows=1;rowLines=0;fontStyle=1;align=center;resizeLast=1;fillColor=#dae8fc;strokeColor=#6c8ebf;fontSize=16;" parent="1" vertex="1">
          <mxGeometry x="50" width="250" height="140" as="geometry">
            <mxRectangle x="120" y="120" width="100" height="30" as="alternateBounds" />
          </mxGeometry>
        </mxCell>
        <mxCell id="C-vyLk0tnHw3VtMMgP7b-24" value="" style="shape=partialRectangle;collapsible=0;dropTarget=0;pointerEvents=0;fillColor=none;points=[[0,0.5],[1,0.5]];portConstraint=eastwest;top=0;left=0;right=0;bottom=1;" parent="C-vyLk0tnHw3VtMMgP7b-23" vertex="1">
          <mxGeometry y="30" width="250" height="30" as="geometry" />
        </mxCell>
        <mxCell id="C-vyLk0tnHw3VtMMgP7b-25" value="DB" style="shape=partialRectangle;overflow=hidden;connectable=0;fillColor=none;top=0;left=0;bottom=0;right=0;fontStyle=1;fontSize=13;" parent="C-vyLk0tnHw3VtMMgP7b-24" vertex="1">
          <mxGeometry width="30" height="30" as="geometry">
            <mxRectangle width="30" height="30" as="alternateBounds" />
          </mxGeometry>
        </mxCell>
        <mxCell id="C-vyLk0tnHw3VtMMgP7b-26" value="Images Upload" style="shape=partialRectangle;overflow=hidden;connectable=0;fillColor=none;top=0;left=0;bottom=0;right=0;align=left;spacingLeft=6;fontStyle=5;fontSize=15;" parent="C-vyLk0tnHw3VtMMgP7b-24" vertex="1">
          <mxGeometry x="30" width="220" height="30" as="geometry">
            <mxRectangle width="220" height="30" as="alternateBounds" />
          </mxGeometry>
        </mxCell>
        <mxCell id="C-vyLk0tnHw3VtMMgP7b-27" value="" style="shape=partialRectangle;collapsible=0;dropTarget=0;pointerEvents=0;fillColor=none;points=[[0,0.5],[1,0.5]];portConstraint=eastwest;top=0;left=0;right=0;bottom=0;" parent="C-vyLk0tnHw3VtMMgP7b-23" vertex="1">
          <mxGeometry y="60" width="250" height="80" as="geometry" />
        </mxCell>
        <mxCell id="C-vyLk0tnHw3VtMMgP7b-28" value="" style="shape=partialRectangle;overflow=hidden;connectable=0;fillColor=none;top=0;left=0;bottom=0;right=0;" parent="C-vyLk0tnHw3VtMMgP7b-27" vertex="1">
          <mxGeometry width="30" height="80" as="geometry">
            <mxRectangle width="30" height="80" as="alternateBounds" />
          </mxGeometry>
        </mxCell>
        <mxCell id="C-vyLk0tnHw3VtMMgP7b-29" value="" style="shape=partialRectangle;overflow=hidden;connectable=0;fillColor=none;top=0;left=0;bottom=0;right=0;align=left;spacingLeft=6;" parent="C-vyLk0tnHw3VtMMgP7b-27" vertex="1">
          <mxGeometry x="30" width="220" height="80" as="geometry">
            <mxRectangle width="220" height="80" as="alternateBounds" />
          </mxGeometry>
        </mxCell>
        <mxCell id="MkkSMNq0kK9rciRN_NWv-7" value="&lt;b&gt;&lt;font style=&quot;font-size: 15px;&quot;&gt;DB&lt;/font&gt;&lt;/b&gt;" style="shape=cylinder3;whiteSpace=wrap;html=1;boundedLbl=1;backgroundOutline=1;size=15;fillColor=#e6d0de;gradientColor=#d5739d;strokeColor=#996185;" vertex="1" parent="1">
          <mxGeometry x="80" y="790" width="60" height="80" as="geometry" />
        </mxCell>
        <mxCell id="MkkSMNq0kK9rciRN_NWv-18" value="" style="edgeStyle=orthogonalEdgeStyle;rounded=0;orthogonalLoop=1;jettySize=auto;html=1;" edge="1" parent="1" source="MkkSMNq0kK9rciRN_NWv-8" target="MkkSMNq0kK9rciRN_NWv-16">
          <mxGeometry relative="1" as="geometry" />
        </mxCell>
        <mxCell id="MkkSMNq0kK9rciRN_NWv-8" value="&lt;font style=&quot;font-size: 14px;&quot;&gt;&lt;b&gt;Authentication&lt;/b&gt;&lt;/font&gt;" style="rounded=1;whiteSpace=wrap;html=1;rotation=270;fillColor=#fad7ac;strokeColor=#b46504;" vertex="1" parent="1">
          <mxGeometry x="295" y="470" width="300" height="60" as="geometry" />
        </mxCell>
        <mxCell id="MkkSMNq0kK9rciRN_NWv-10" value="&lt;font style=&quot;font-size: 14px;&quot;&gt;&lt;b&gt;Authorization&lt;/b&gt;&lt;/font&gt;" style="rounded=1;whiteSpace=wrap;html=1;rotation=270;fillColor=#fad7ac;strokeColor=#b46504;" vertex="1" parent="1">
          <mxGeometry x="215" y="470" width="300" height="60" as="geometry" />
        </mxCell>
        <mxCell id="MkkSMNq0kK9rciRN_NWv-16" value="" style="shape=internalStorage;whiteSpace=wrap;html=1;backgroundOutline=1;dx=50;dy=40;" vertex="1" parent="1">
          <mxGeometry x="50" y="350" width="230" height="360" as="geometry" />
        </mxCell>
        <mxCell id="MkkSMNq0kK9rciRN_NWv-20" value="" style="shape=flexArrow;endArrow=classic;html=1;rounded=0;width=17.647058823529413;endSize=5.317647058823529;endWidth=21.591695501730104;fillColor=#bac8d3;strokeColor=#23445d;" edge="1" parent="1">
          <mxGeometry width="50" height="50" relative="1" as="geometry">
            <mxPoint x="530" y="490" as="sourcePoint" />
            <mxPoint x="500" y="490" as="targetPoint" />
          </mxGeometry>
        </mxCell>
        <mxCell id="MkkSMNq0kK9rciRN_NWv-21" value="&lt;font style=&quot;font-size: 15px;&quot;&gt;Face detection API:&lt;/font&gt;" style="text;html=1;strokeColor=none;fillColor=none;align=center;verticalAlign=middle;whiteSpace=wrap;rounded=0;fontSize=14;" vertex="1" parent="1">
          <mxGeometry x="110" y="450" width="150" height="30" as="geometry" />
        </mxCell>
        <mxCell id="MkkSMNq0kK9rciRN_NWv-22" value="&lt;font style=&quot;font-size: 15px;&quot;&gt;Image upload API&lt;/font&gt;" style="text;html=1;strokeColor=none;fillColor=none;align=center;verticalAlign=middle;whiteSpace=wrap;rounded=0;" vertex="1" parent="1">
          <mxGeometry x="100" y="410" width="160" height="40" as="geometry" />
        </mxCell>
        <mxCell id="MkkSMNq0kK9rciRN_NWv-23" value="&lt;font style=&quot;font-size: 15px;&quot;&gt;Morphing API&lt;/font&gt;" style="text;html=1;strokeColor=none;fillColor=none;align=center;verticalAlign=middle;whiteSpace=wrap;rounded=0;" vertex="1" parent="1">
          <mxGeometry x="110" y="485" width="140" height="45" as="geometry" />
        </mxCell>
        <mxCell id="MkkSMNq0kK9rciRN_NWv-24" value="&lt;font style=&quot;font-size: 15px;&quot;&gt;Output image retrieval API&lt;/font&gt;" style="text;html=1;strokeColor=none;fillColor=none;align=center;verticalAlign=middle;whiteSpace=wrap;rounded=0;" vertex="1" parent="1">
          <mxGeometry x="110" y="535" width="160" height="35" as="geometry" />
        </mxCell>
        <mxCell id="MkkSMNq0kK9rciRN_NWv-25" value="&lt;font style=&quot;font-size: 15px;&quot;&gt;Error handling API:&lt;/font&gt;" style="text;html=1;strokeColor=none;fillColor=none;align=center;verticalAlign=middle;whiteSpace=wrap;rounded=0;" vertex="1" parent="1">
          <mxGeometry x="100" y="600" width="170" height="30" as="geometry" />
        </mxCell>
        <mxCell id="MkkSMNq0kK9rciRN_NWv-26" value="" style="shape=flexArrow;endArrow=classic;startArrow=classic;html=1;rounded=0;fillColor=#bac8d3;strokeColor=#23445d;" edge="1" parent="1">
          <mxGeometry width="100" height="100" relative="1" as="geometry">
            <mxPoint x="310" y="80" as="sourcePoint" />
            <mxPoint x="500" y="80" as="targetPoint" />
          </mxGeometry>
        </mxCell>
        <mxCell id="MkkSMNq0kK9rciRN_NWv-28" value="&lt;b&gt;&lt;font style=&quot;font-size: 15px;&quot;&gt;API Methods&lt;/font&gt;&lt;/b&gt;" style="text;html=1;strokeColor=#36393d;fillColor=#cce5ff;align=center;verticalAlign=middle;whiteSpace=wrap;rounded=0;" vertex="1" parent="1">
          <mxGeometry x="100" y="350" width="180" height="40" as="geometry" />
        </mxCell>
        <mxCell id="MkkSMNq0kK9rciRN_NWv-29" value="&lt;font style=&quot;font-size: 15px;&quot;&gt;&lt;b&gt;API &lt;br&gt;Type&lt;/b&gt;&lt;/font&gt;" style="text;html=1;strokeColor=none;fillColor=none;align=center;verticalAlign=middle;whiteSpace=wrap;rounded=0;" vertex="1" parent="1">
          <mxGeometry x="50" y="420" width="60" height="50" as="geometry" />
        </mxCell>
        <mxCell id="MkkSMNq0kK9rciRN_NWv-44" value="&lt;b&gt;&lt;font style=&quot;font-size: 15px;&quot;&gt;Security&lt;/font&gt;&lt;/b&gt;" style="text;html=1;strokeColor=#b46504;fillColor=#fad7ac;align=center;verticalAlign=middle;whiteSpace=wrap;rounded=0;" vertex="1" parent="1">
          <mxGeometry x="305" y="282.5" width="190" height="50" as="geometry" />
        </mxCell>
        <mxCell id="MkkSMNq0kK9rciRN_NWv-45" value="&lt;font style=&quot;font-size: 16px;&quot;&gt;&lt;b&gt;OpenCv&lt;/b&gt;&lt;/font&gt;" style="shape=parallelogram;perimeter=parallelogramPerimeter;whiteSpace=wrap;html=1;fixedSize=1;fillColor=#b1ddf0;strokeColor=#10739e;" vertex="1" parent="1">
          <mxGeometry x="160" y="790" width="120" height="60" as="geometry" />
        </mxCell>
        <mxCell id="MkkSMNq0kK9rciRN_NWv-47" value="" style="endArrow=classic;startArrow=classic;html=1;rounded=0;" edge="1" parent="1">
          <mxGeometry width="50" height="50" relative="1" as="geometry">
            <mxPoint x="230" y="780" as="sourcePoint" />
            <mxPoint x="230" y="720" as="targetPoint" />
          </mxGeometry>
        </mxCell>
        <mxCell id="MkkSMNq0kK9rciRN_NWv-49" value="" style="endArrow=classic;startArrow=classic;html=1;rounded=0;" edge="1" parent="1">
          <mxGeometry width="50" height="50" relative="1" as="geometry">
            <mxPoint x="110" y="790" as="sourcePoint" />
            <mxPoint x="110" y="720" as="targetPoint" />
          </mxGeometry>
        </mxCell>
        <mxCell id="MkkSMNq0kK9rciRN_NWv-50" value="" style="text;html=1;strokeColor=#6c8ebf;fillColor=#dae8fc;align=center;verticalAlign=middle;whiteSpace=wrap;rounded=0;" vertex="1" parent="1">
          <mxGeometry x="50" y="350" width="50" height="40" as="geometry" />
        </mxCell>
        <mxCell id="MkkSMNq0kK9rciRN_NWv-51" value="Presentation Layer" style="shape=table;startSize=50;container=1;collapsible=1;childLayout=tableLayout;fixedRows=1;rowLines=0;fontStyle=1;align=center;resizeLast=1;labelBackgroundColor=none;fillColor=#dae8fc;strokeColor=#6c8ebf;fontSize=16;" vertex="1" parent="1">
          <mxGeometry x="515" y="-127" width="250" height="380" as="geometry" />
        </mxCell>
        <mxCell id="MkkSMNq0kK9rciRN_NWv-52" value="" style="shape=partialRectangle;collapsible=0;dropTarget=0;pointerEvents=0;fillColor=none;points=[[0,0.5],[1,0.5]];portConstraint=eastwest;top=0;left=0;right=0;bottom=1;" vertex="1" parent="MkkSMNq0kK9rciRN_NWv-51">
          <mxGeometry y="50" width="250" height="20" as="geometry" />
        </mxCell>
        <mxCell id="MkkSMNq0kK9rciRN_NWv-53" value="" style="shape=partialRectangle;overflow=hidden;connectable=0;fillColor=none;top=0;left=0;bottom=0;right=0;fontStyle=1;" vertex="1" parent="MkkSMNq0kK9rciRN_NWv-52">
          <mxGeometry width="30" height="20" as="geometry">
            <mxRectangle width="30" height="20" as="alternateBounds" />
          </mxGeometry>
        </mxCell>
        <mxCell id="MkkSMNq0kK9rciRN_NWv-54" value="" style="shape=partialRectangle;overflow=hidden;connectable=0;fillColor=none;top=0;left=0;bottom=0;right=0;align=left;spacingLeft=6;fontStyle=5;" vertex="1" parent="MkkSMNq0kK9rciRN_NWv-52">
          <mxGeometry x="30" width="220" height="20" as="geometry">
            <mxRectangle width="220" height="20" as="alternateBounds" />
          </mxGeometry>
        </mxCell>
        <mxCell id="MkkSMNq0kK9rciRN_NWv-55" value="" style="shape=partialRectangle;collapsible=0;dropTarget=0;pointerEvents=0;fillColor=none;points=[[0,0.5],[1,0.5]];portConstraint=eastwest;top=0;left=0;right=0;bottom=0;" vertex="1" parent="MkkSMNq0kK9rciRN_NWv-51">
          <mxGeometry y="70" width="250" height="30" as="geometry" />
        </mxCell>
        <mxCell id="MkkSMNq0kK9rciRN_NWv-56" value="" style="shape=partialRectangle;overflow=hidden;connectable=0;fillColor=none;top=0;left=0;bottom=0;right=0;" vertex="1" parent="MkkSMNq0kK9rciRN_NWv-55">
          <mxGeometry width="30" height="30" as="geometry">
            <mxRectangle width="30" height="30" as="alternateBounds" />
          </mxGeometry>
        </mxCell>
        <mxCell id="MkkSMNq0kK9rciRN_NWv-57" value="" style="shape=partialRectangle;overflow=hidden;connectable=0;fillColor=none;top=0;left=0;bottom=0;right=0;align=left;spacingLeft=6;" vertex="1" parent="MkkSMNq0kK9rciRN_NWv-55">
          <mxGeometry x="30" width="220" height="30" as="geometry">
            <mxRectangle width="220" height="30" as="alternateBounds" />
          </mxGeometry>
        </mxCell>
        <mxCell id="MkkSMNq0kK9rciRN_NWv-58" value="" style="shape=partialRectangle;collapsible=0;dropTarget=0;pointerEvents=0;fillColor=none;points=[[0,0.5],[1,0.5]];portConstraint=eastwest;top=0;left=0;right=0;bottom=0;" vertex="1" parent="MkkSMNq0kK9rciRN_NWv-51">
          <mxGeometry y="100" width="250" height="140" as="geometry" />
        </mxCell>
        <mxCell id="MkkSMNq0kK9rciRN_NWv-59" value="" style="shape=partialRectangle;overflow=hidden;connectable=0;fillColor=none;top=0;left=0;bottom=0;right=0;" vertex="1" parent="MkkSMNq0kK9rciRN_NWv-58">
          <mxGeometry width="30" height="140" as="geometry">
            <mxRectangle width="30" height="140" as="alternateBounds" />
          </mxGeometry>
        </mxCell>
        <mxCell id="MkkSMNq0kK9rciRN_NWv-60" value="" style="shape=partialRectangle;overflow=hidden;connectable=0;fillColor=none;top=0;left=0;bottom=0;right=0;align=left;spacingLeft=6;" vertex="1" parent="MkkSMNq0kK9rciRN_NWv-58">
          <mxGeometry x="30" width="220" height="140" as="geometry">
            <mxRectangle width="220" height="140" as="alternateBounds" />
          </mxGeometry>
        </mxCell>
        <mxCell id="MkkSMNq0kK9rciRN_NWv-61" value="" style="shape=partialRectangle;collapsible=0;dropTarget=0;pointerEvents=0;fillColor=none;points=[[0,0.5],[1,0.5]];portConstraint=eastwest;top=0;left=0;right=0;bottom=0;" vertex="1" parent="MkkSMNq0kK9rciRN_NWv-51">
          <mxGeometry y="240" width="250" height="140" as="geometry" />
        </mxCell>
        <mxCell id="MkkSMNq0kK9rciRN_NWv-62" value="" style="shape=partialRectangle;overflow=hidden;connectable=0;fillColor=none;top=0;left=0;bottom=0;right=0;" vertex="1" parent="MkkSMNq0kK9rciRN_NWv-61">
          <mxGeometry width="30" height="140" as="geometry">
            <mxRectangle width="30" height="140" as="alternateBounds" />
          </mxGeometry>
        </mxCell>
        <mxCell id="MkkSMNq0kK9rciRN_NWv-63" value="" style="shape=partialRectangle;overflow=hidden;connectable=0;fillColor=none;top=0;left=0;bottom=0;right=0;align=left;spacingLeft=6;" vertex="1" parent="MkkSMNq0kK9rciRN_NWv-61">
          <mxGeometry x="30" width="220" height="140" as="geometry">
            <mxRectangle width="220" height="140" as="alternateBounds" />
          </mxGeometry>
        </mxCell>
        <mxCell id="MkkSMNq0kK9rciRN_NWv-64" value="&lt;font style=&quot;font-size: 15px;&quot;&gt;FaceMorphingService&lt;/font&gt;" style="text;html=1;strokeColor=none;fillColor=none;align=center;verticalAlign=middle;whiteSpace=wrap;rounded=0;" vertex="1" parent="1">
          <mxGeometry x="540" y="-47" width="200" height="30" as="geometry" />
        </mxCell>
        <mxCell id="MkkSMNq0kK9rciRN_NWv-65" value="&lt;font style=&quot;font-size: 15px;&quot;&gt;MorphResponseModel&lt;/font&gt;" style="text;html=1;strokeColor=none;fillColor=none;align=center;verticalAlign=middle;whiteSpace=wrap;rounded=0;" vertex="1" parent="1">
          <mxGeometry x="530" y="153" width="220" height="30" as="geometry" />
        </mxCell>
        <mxCell id="MkkSMNq0kK9rciRN_NWv-66" value="&lt;font style=&quot;font-size: 15px;&quot;&gt;AgeProgressionRequestModel&lt;/font&gt;" style="text;html=1;strokeColor=none;fillColor=none;align=center;verticalAlign=middle;whiteSpace=wrap;rounded=0;" vertex="1" parent="1">
          <mxGeometry x="550" y="113" width="200" height="30" as="geometry" />
        </mxCell>
        <mxCell id="MkkSMNq0kK9rciRN_NWv-67" value="&lt;font style=&quot;font-size: 15px;&quot;&gt;MorphRequestModel&lt;/font&gt;" style="text;html=1;strokeColor=none;fillColor=none;align=center;verticalAlign=middle;whiteSpace=wrap;rounded=0;" vertex="1" parent="1">
          <mxGeometry x="530" y="73" width="220" height="30" as="geometry" />
        </mxCell>
        <mxCell id="MkkSMNq0kK9rciRN_NWv-68" value="&lt;font style=&quot;font-size: 15px;&quot;&gt;FaceImageModel&lt;/font&gt;" style="text;html=1;strokeColor=none;fillColor=none;align=center;verticalAlign=middle;whiteSpace=wrap;rounded=0;" vertex="1" parent="1">
          <mxGeometry x="540" y="28" width="200" height="30" as="geometry" />
        </mxCell>
        <mxCell id="MkkSMNq0kK9rciRN_NWv-69" value="&lt;font style=&quot;font-size: 15px;&quot;&gt;AgeProgressionService&lt;/font&gt;" style="text;html=1;strokeColor=none;fillColor=none;align=center;verticalAlign=middle;whiteSpace=wrap;rounded=0;" vertex="1" parent="1">
          <mxGeometry x="540" y="-7" width="200" height="30" as="geometry" />
        </mxCell>
        <mxCell id="MkkSMNq0kK9rciRN_NWv-70" value="" style="shape=flexArrow;endArrow=classic;startArrow=classic;html=1;rounded=0;fillColor=#bac8d3;strokeColor=#23445d;" edge="1" parent="1">
          <mxGeometry width="100" height="100" relative="1" as="geometry">
            <mxPoint x="649.41" y="382.5" as="sourcePoint" />
            <mxPoint x="649.41" y="260" as="targetPoint" />
          </mxGeometry>
        </mxCell>
        <mxCell id="MkkSMNq0kK9rciRN_NWv-73" value="" style="endArrow=none;dashed=1;html=1;dashPattern=1 3;strokeWidth=2;rounded=0;" edge="1" parent="1">
          <mxGeometry width="50" height="50" relative="1" as="geometry">
            <mxPoint x="-50" y="940" as="sourcePoint" />
            <mxPoint x="-50" y="-250" as="targetPoint" />
          </mxGeometry>
        </mxCell>
        <mxCell id="MkkSMNq0kK9rciRN_NWv-74" value="" style="endArrow=none;dashed=1;html=1;dashPattern=1 3;strokeWidth=2;rounded=0;" edge="1" parent="1">
          <mxGeometry width="50" height="50" relative="1" as="geometry">
            <mxPoint x="-50" y="940" as="sourcePoint" />
            <mxPoint x="880" y="940" as="targetPoint" />
          </mxGeometry>
        </mxCell>
        <mxCell id="MkkSMNq0kK9rciRN_NWv-75" value="" style="endArrow=none;dashed=1;html=1;dashPattern=1 3;strokeWidth=2;rounded=0;" edge="1" parent="1">
          <mxGeometry width="50" height="50" relative="1" as="geometry">
            <mxPoint x="-50" y="-250" as="sourcePoint" />
            <mxPoint x="880" y="-250" as="targetPoint" />
            <Array as="points" />
          </mxGeometry>
        </mxCell>
        <mxCell id="MkkSMNq0kK9rciRN_NWv-76" value="" style="endArrow=none;dashed=1;html=1;dashPattern=1 3;strokeWidth=2;rounded=0;" edge="1" parent="1">
          <mxGeometry width="50" height="50" relative="1" as="geometry">
            <mxPoint x="880" y="940" as="sourcePoint" />
            <mxPoint x="880" y="-250" as="targetPoint" />
          </mxGeometry>
        </mxCell>
      </root>
    </mxGraphModel>
  </diagram>
</mxfile>
